<?xml version="1.0" encoding="utf-8"?>
<!-- Generator: Adobe Illustrator 28.4.1, SVG Export Plug-In . SVG Version: 6.00 Build 0)  -->
<svg version="1.1" id="Layer_1" xmlns="http://www.w3.org/2000/svg" xmlns:xlink="http://www.w3.org/1999/xlink" x="0px" y="0px"
	 viewBox="0 0 500 300" style="enable-background:new 0 0 500 300;" xml:space="preserve">
<style type="text/css">
	.st0{fill:#DDDDDD;stroke:#000000;stroke-miterlimit:10;}
	.st1{fill:#F2F2F2;}
	.st2{fill:#3F3D56;}
	.st3{opacity:0.3;fill:#7C38B5;enable-background:new    ;}
	.st4{fill:#7C38B5;}
	.st5{opacity:0.4;fill:#7C38B5;enable-background:new    ;}
	.st6{fill:#2F2E41;}
	.st7{fill:#FFB8B8;}
	.st8{fill:#D0CDE1;}
</style>
<g id="bca70d0a-57dd-451b-a82c-bb6927f27458">
	<rect x="-3" y="-3" class="st0" width="509" height="306"/>
	<polygon class="st1" points="124.9,2.03 100.95,48.76 105.8,48.76 105.8,86.86 81.45,86.86 67.38,114.26 241.34,203.43 
		298.9,91.21 	"/>
	<rect x="119.87" y="32.43" class="st2" width="266.72" height="133.81"/>
	<rect x="157.29" y="80.51" class="st3" width="196.86" height="0.45"/>
	<rect x="157.51" y="91.85" class="st3" width="196.86" height="0.45"/>
	<rect x="157.51" y="114.53" class="st3" width="196.86" height="0.45"/>
	<rect x="157.51" y="124.51" class="st3" width="196.86" height="0.45"/>
	<rect x="157.51" y="103.19" class="st3" width="196.86" height="0.45"/>
	<ellipse class="st2" cx="324.44" cy="287.8" rx="84.37" ry="7.71"/>
	<polygon class="st4" points="162.96,124.83 162.32,124.19 191.63,96.25 217.48,114.85 238.35,91.67 247.51,99.47 272.46,84.5 
		300.13,103.1 343.54,78.42 343.99,79.19 300.08,104.19 272.41,85.59 247.42,100.56 238.44,92.94 217.62,116.03 191.72,97.43 	"/>
	<path class="st2" d="M247.37,272.29c2.13,7.89,9.43,12.75,9.43,12.75s3.86-7.89,1.72-15.79c-2.13-7.89-9.43-12.75-9.43-12.75
		S245.24,264.44,247.37,272.29z"/>
	<path class="st4" d="M250.5,270.61c5.85,5.72,6.58,14.47,6.58,14.47s-8.75-0.5-14.61-6.17c-5.85-5.72-6.58-14.47-6.58-14.47
		S244.65,264.94,250.5,270.61z"/>
	<circle class="st5" cx="414.48" cy="26.3" r="15.2"/>
	<circle class="st5" cx="386.36" cy="33.56" r="10.66"/>
	<circle class="st5" cx="373.2" cy="229.06" r="5.67"/>
	<circle class="st5" cx="276.58" cy="258.55" r="4.31"/>
	<circle class="st5" cx="262.07" cy="201.39" r="5.67"/>
	<circle class="st4" cx="343.26" cy="80.73" r="5.9"/>
	<path class="st6" d="M304.93,187.56l-4.99,0.54c0,0-2.22,9.98,0,23.32c2.22,13.34,4.99,26.67,4.99,26.67s2.22,43.32,3.31,43.86
		c1.09,0.54,11.11,3.9,11.66,0.54c0.54-3.31,0.54-79.43,0.54-79.43l7.76,36.65c0,0,1.09,46.09,3.31,46.09
		c2.22,0,9.43-0.54,9.43-4.45c0-3.9,1.68-54.98,1.68-54.98s-0.54-37.79-2.77-38.87C337.64,186.42,304.93,187.56,304.93,187.56z"/>
	<path class="st6" d="M309.38,280.32c0,0-4.99-0.54-6.12,0c-1.13,0.54-2.77,4.45,0,6.67s9.98,5.53,12.2,5.53
		c1.54-0.09,3.04-0.45,4.45-1.09l-1.09-9.43L309.38,280.32z"/>
	<path class="st6" d="M331.61,283.09l0.54,7.76c0,0,7.21,1.09,7.76,0c0.54-1.09,6.12-3.9,6.67-4.45c0.54-0.54,1.09-6.67-2.22-7.21
		c-3.31-0.54-4.45,1.09-4.45,1.09L331.61,283.09z"/>
	<path class="st7" d="M284.93,140.88c0,0-13.34,12.79-11.66,19.46c1.68,6.67,15.01,26.13,15.01,26.13s12.79,6.67,14.42,0
		c1.63-6.67-8.89-4.99-8.89-4.99l-8.35-20l9.43-13.34L284.93,140.88z"/>
	<path class="st7" d="M344.49,121.47c0,0,12.16-7.8,11.88-13.15c-0.27-5.35-7.62-22.27-7.62-22.27s-5.72-11.88-7.98-7.03
		c-2.27,4.85,2.99,10.02,2.99,10.02l3.4,16.6l-9.25,8.8L344.49,121.47z"/>
	<circle class="st7" cx="314.37" cy="100.33" r="9.98"/>
	<path class="st7" d="M309.38,106.45l1.68,10.57l12.2-2.22c0,0-0.54-10.57-0.54-11.66C322.72,102.05,309.38,106.45,309.38,106.45z"
		/>
	<path class="st8" d="M308.84,117.02c0,0,13.88-3.31,15.56-2.22c1.68,1.09,9.98,2.22,9.98,2.22l9.43,14.42l-2.77,18.33
		c0,0-0.54,29.44,0.54,34.43s7.21,5.53-5.53,6.67c-12.75,1.13-15.01-0.54-23.9,1.68s-16.1-1.09-13.88-3.31
		c2.22-2.22,6.12-37.79,1.68-41.1c-4.45-3.31-6.12-20.55-6.12-20.55S308.84,119.79,308.84,117.02z"/>
	<path class="st8" d="M332.7,118.66l1.68-1.68l3.31-3.31c0,0,10.84,4.72,10.3,6.4c-0.54,1.68-4.17,11.39-4.17,11.39l-4.99,1.68
		L332.7,118.66z"/>
	<path class="st8" d="M300.49,128.68l-6.67-1.09c0,0-4.99,5.53-6.67,7.76c-1.68,2.22-4.99,7.76-4.99,7.76l11.66,8.35l8.89-9.43
		L300.49,128.68z"/>
	<path class="st6" d="M317.86,88.22l-0.09-0.82c-0.68,0-1.36,0.09-2,0.32c-0.05-0.5-0.05-0.95,0.14-1.45
		c-0.64,0.18-1.27,0.45-1.86,0.82l-0.41-1.45l-5.53,2.72c-2,1-4.08,2.04-5.22,3.99c-1.27,2.13-1.04,4.85-0.18,7.17
		c0.86,2.31,2.31,4.35,3.45,6.58c0.45,0.95,0.95,1.86,1.59,2.68c2.09,2.63,6.17,3.13,9.12,1.54c1.13-0.54,2.04-1.45,2.54-2.59
		c0.23-0.73,0.36-1.41,0.5-2.18c0.36-1.5,0.77-4.58,2-5.53c0.54-0.41,1.59,0.95,2.04,0.45c1.13-1.32,0.91-3.36,0.18-4.94
		c-0.68-1.59-1.45-3.13-2.36-4.63C321.36,90.35,317.86,88.13,317.86,88.22z"/>
	<rect x="73.14" y="54.2" class="st2" width="29.03" height="29.03"/>
</g>
</svg>
